<svg xmlns="http://www.w3.org/2000/svg" viewBox="0 0 32 32" width="32" height="32">
  <path d="M3.5 23.7c-.4.7-.9 1.5-1.3 2.1-.3.5-.2 1.1.3 1.4l5.8 3.6c.5.3 1.1.2 1.4-.3.4-.6.8-1.3 1.3-2.1 2.6-4.3 5.2-3.8 10-1.4l5.5 2.7c.5.3 1.1.1 1.4-.4l3-5.9c.3-.5.1-1.1-.4-1.4-1.7-.9-5-2.5-5.5-2.8-7.4-3.7-13.2-3.6-21.5 4.5z" fill="#1868db"/>
  <path d="M28.5 8.3c.4-.7.9-1.5 1.3-2.1.3-.5.2-1.1-.3-1.4L23.7 1.2c-.5-.3-1.1-.2-1.4.3-.4.6-.8 1.3-1.3 2.1-2.6 4.3-5.2 3.8-10 1.4L5.5 2.3c-.5-.3-1.1-.1-1.4.4l-3 5.9c-.3.5-.1 1.1.4 1.4 1.7.9 5 2.5 5.5 2.8 7.4 3.7 13.2 3.6 21.5-4.5z" fill="#1868db"/>
</svg>